<svg width="378" height="285" viewBox="0 0 378 285" fill="none" xmlns="http://www.w3.org/2000/svg">
<rect x="30.1728" y="83" width="15.9246" height="120" rx="7.96231" fill="url(#paint0_linear)"/>
<rect x="150.865" y="83" width="15.9246" height="120" rx="7.96231" fill="url(#paint1_linear)"/>
<rect x="90.5187" y="83" width="15.9246" height="120" rx="7.96231" fill="url(#paint2_linear)"/>
<rect x="-0.00012207" y="112" width="15.9246" height="62" rx="7.96231" fill="url(#paint3_linear)"/>
<rect x="120.692" y="112" width="15.9246" height="62" rx="7.96231" fill="url(#paint4_linear)"/>
<rect x="362.075" y="112" width="15.9246" height="62" rx="7.96231" fill="url(#paint5_linear)"/>
<rect x="331.902" y="83" width="15.9246" height="120" rx="7.96231" fill="url(#paint6_linear)"/>
<rect x="271.556" y="83" width="15.9246" height="120" rx="7.96231" fill="url(#paint7_linear)"/>
<rect x="60.3458" y="43" width="15.9246" height="199" rx="7.96231" fill="url(#paint8_linear)"/>
<rect x="181.038" y="43" width="15.9246" height="199" rx="7.96231" fill="url(#paint9_linear)"/>
<rect x="241.383" y="43" width="15.9246" height="199" rx="7.96231" fill="url(#paint10_linear)"/>
<rect x="301.729" y="43" width="15.9246" height="199" rx="7.96231" fill="url(#paint11_linear)"/>
<rect x="211.211" width="15.9246" height="285" rx="7.96231" fill="url(#paint12_linear)"/>
<defs>
<linearGradient id="paint0_linear" x1="38.1351" y1="83" x2="38.1351" y2="203" gradientUnits="userSpaceOnUse">
<stop stop-color="white"/>
<stop offset="1" stop-color="#F198FF"/>
</linearGradient>
<linearGradient id="paint1_linear" x1="158.827" y1="83" x2="158.827" y2="203" gradientUnits="userSpaceOnUse">
<stop stop-color="white"/>
<stop offset="1" stop-color="#F198FF"/>
</linearGradient>
<linearGradient id="paint2_linear" x1="98.481" y1="83" x2="98.481" y2="203" gradientUnits="userSpaceOnUse">
<stop stop-color="white"/>
<stop offset="1" stop-color="#F198FF"/>
</linearGradient>
<linearGradient id="paint3_linear" x1="7.96218" y1="112" x2="7.96218" y2="174" gradientUnits="userSpaceOnUse">
<stop stop-color="white"/>
<stop offset="1" stop-color="#F198FF"/>
</linearGradient>
<linearGradient id="paint4_linear" x1="128.654" y1="112" x2="128.654" y2="174" gradientUnits="userSpaceOnUse">
<stop stop-color="white"/>
<stop offset="1" stop-color="#F198FF"/>
</linearGradient>
<linearGradient id="paint5_linear" x1="370.038" y1="112" x2="370.038" y2="174" gradientUnits="userSpaceOnUse">
<stop stop-color="white"/>
<stop offset="1" stop-color="#F198FF"/>
</linearGradient>
<linearGradient id="paint6_linear" x1="339.865" y1="83" x2="339.865" y2="203" gradientUnits="userSpaceOnUse">
<stop stop-color="white"/>
<stop offset="1" stop-color="#F198FF"/>
</linearGradient>
<linearGradient id="paint7_linear" x1="279.519" y1="83" x2="279.519" y2="203" gradientUnits="userSpaceOnUse">
<stop stop-color="white"/>
<stop offset="1" stop-color="#F198FF"/>
</linearGradient>
<linearGradient id="paint8_linear" x1="68.3081" y1="43" x2="68.3081" y2="242" gradientUnits="userSpaceOnUse">
<stop stop-color="white"/>
<stop offset="1" stop-color="#F198FF"/>
</linearGradient>
<linearGradient id="paint9_linear" x1="189" y1="43" x2="189" y2="242" gradientUnits="userSpaceOnUse">
<stop stop-color="white"/>
<stop offset="1" stop-color="#F198FF"/>
</linearGradient>
<linearGradient id="paint10_linear" x1="249.346" y1="43" x2="249.346" y2="242" gradientUnits="userSpaceOnUse">
<stop stop-color="white"/>
<stop offset="1" stop-color="#F198FF"/>
</linearGradient>
<linearGradient id="paint11_linear" x1="309.692" y1="43" x2="309.692" y2="242" gradientUnits="userSpaceOnUse">
<stop stop-color="white"/>
<stop offset="1" stop-color="#F198FF"/>
</linearGradient>
<linearGradient id="paint12_linear" x1="219.173" y1="0" x2="219.173" y2="285" gradientUnits="userSpaceOnUse">
<stop stop-color="white"/>
<stop offset="1" stop-color="#F198FF"/>
</linearGradient>
</defs>
</svg>
